<svg width="220" height="220" viewBox="0 0 220 220" fill="none" xmlns="http://www.w3.org/2000/svg">
  <circle cx="110" cy="110" r="110" fill="#8247E5"/>
  <path fill="#FFFFFF" d="M140.5 85.4c-2.8-1.6-6.4-1.6-9.6 0l-22.4 13.3-15.2 8.4-22.1 13.3c-2.8 1.6-6.4 1.6-9.6 0l-17.2-10.5c-2.8-1.6-4.8-4.8-4.8-8.4v-20.1c0-3.2 1.6-6.4 4.8-8.4l17.2-10c2.8-1.6 6.4-1.6 9.6 0l17.2 10.5c2.8 1.6 4.8 4.8 4.8 8.4v13.3l15.2-8.8V71.9c0-3.2-1.6-6.4-4.8-8.4l-32-18.9c-2.8-1.6-6.4-1.6-9.6 0l-33.2 19.3c-3.2 1.6-4.8 4.8-4.8 8v37.8c0 3.2 1.6 6.4 4.8 8.4l32.4 18.9c2.8 1.6 6.4 1.6 9.6 0l22-12.9 15.2-8.8 22-12.9c2.8-1.6 6.4-1.6 9.6 0l17.2 10c2.8 1.6 4.8 4.8 4.8 8.4v20.1c0 3.2-1.6 6.4-4.8 8.4l-16.8 10c-2.8 1.6-6.4 1.6-9.6 0l-17.2-10c-2.8-1.6-4.8-4.8-4.8-8.4v-12.9l-15.2 8.8v13.3c0 3.2 1.6 6.4 4.8 8.4l32.4 18.9c2.8 1.6 6.4 1.6 9.6 0l32.4-18.9c2.8-1.6 4.8-4.8 4.8-8.4v-38.2c0-3.2-1.6-6.4-4.8-8.4l-32.8-18.5z"/>
</svg>
