<svg width="220" height="220" viewBox="0 0 220 220" fill="none" xmlns="http://www.w3.org/2000/svg">
<g clip-path="url(#clip0_3678_416)">
<path d="M110 0C49.2483 0 0 49.2483 0 110C0 170.752 49.2483 220 110 220C170.752 220 220 170.752 220 110C220 49.2483 170.752 0 110 0Z" fill="#213147"/>
<path d="M100.5 29.7735C106.688 26.2008 114.312 26.2008 120.5 29.7735L175.411 61.4765C181.599 65.0492 185.411 71.6517 185.411 78.797V142.203C185.411 149.348 181.599 155.951 175.411 159.523L120.5 191.227C114.312 194.799 106.688 194.799 100.5 191.227L45.5888 159.523C39.4008 155.951 35.5888 149.348 35.5888 142.203V78.797C35.5888 71.6517 39.4008 65.0492 45.5888 61.4765L100.5 29.7735Z" fill="#213147"/>
<path d="M123.489 123.607L114.807 147.415C114.572 148.077 114.572 148.799 114.807 149.461L129.742 190.425L147.016 180.449L126.283 123.607C125.812 122.298 123.958 122.298 123.487 123.607H123.489Z" fill="#12AAFF"/>
<path d="M140.897 83.5686C140.426 82.2597 138.572 82.2597 138.101 83.5686L129.419 107.376C129.184 108.038 129.184 108.76 129.419 109.422L153.889 176.491L171.163 166.515L140.895 83.5686H140.897Z" fill="#12AAFF"/>
<path fill-rule="evenodd" clip-rule="evenodd" d="M98.425 26.1793C105.897 21.8654 115.103 21.8654 122.575 26.1793L177.486 57.8823C184.958 62.1963 189.561 70.1689 189.561 78.7968V142.203C189.561 150.831 184.958 158.803 177.486 163.117L122.575 194.82C115.103 199.134 105.897 199.134 98.425 194.82L81.5782 185.094L85.7282 177.906L102.575 187.632C107.479 190.464 113.521 190.464 118.425 187.632L173.336 155.929C178.24 153.098 181.261 147.865 181.261 142.203V78.7968C181.261 73.1342 178.24 67.9017 173.336 65.0703L118.425 33.3673C113.521 30.536 107.479 30.536 102.575 33.3673L47.6638 65.0703C42.7598 67.9017 39.7388 73.1342 39.7388 78.7968V142.203C39.7388 147.865 42.7598 153.098 47.6638 155.929L61.696 164.031L57.546 171.219L43.5138 163.117C36.0418 158.803 31.4388 150.831 31.4388 142.203V78.7968C31.4388 70.1689 36.0418 62.1963 43.5138 57.8823L98.425 26.1793Z" fill="#94BEDE"/>
<path d="M104.478 66.6001H87.8763C86.6334 66.6001 85.5218 67.3779 85.0973 68.5544L49.5095 166.528L66.6811 176.486L105.868 68.5984C106.234 67.6285 105.516 66.6001 104.478 66.6001Z" fill="white"/>
<path d="M133.72 66.5H117.118C115.875 66.5 114.764 67.2792 114.339 68.4577L73.7046 180.524L90.8765 190.5L135.11 68.5018C135.462 67.5302 134.744 66.5 133.72 66.5Z" fill="white"/>
</g>
<defs>
<clipPath id="clip0_3678_416">
<rect width="220" height="220" rx="110" fill="white"/>
</clipPath>
</defs>
</svg>
